<?xml version="1.0" encoding="UTF-8" standalone="no"?>
<svg
   xmlns:dc="http://purl.org/dc/elements/1.1/"
   xmlns:cc="http://creativecommons.org/ns#"
   xmlns:rdf="http://www.w3.org/1999/02/22-rdf-syntax-ns#"
   xmlns:svg="http://www.w3.org/2000/svg"
   xmlns="http://www.w3.org/2000/svg"
   xmlns:xlink="http://www.w3.org/1999/xlink"
   xmlns:sodipodi="http://sodipodi.sourceforge.net/DTD/sodipodi-0.dtd"
   xmlns:inkscape="http://www.inkscape.org/namespaces/inkscape"
   id="svg8"
   version="1.1"
   viewBox="0 0 323.55899 73.388002"
   height="73.388mm"
   width="323.55899mm"
   sodipodi:docname="PeerShare-logo.svg"
   inkscape:version="0.92.4 (5da689c313, 2019-01-14)">
  <sodipodi:namedview
     pagecolor="#ffffff"
     bordercolor="#666666"
     borderopacity="1"
     objecttolerance="10"
     gridtolerance="10"
     guidetolerance="10"
     inkscape:pageopacity="0"
     inkscape:pageshadow="2"
     inkscape:window-width="1024"
     inkscape:window-height="578"
     id="namedview21"
     showgrid="false"
     inkscape:zoom="0.28064094"
     inkscape:cx="819.88631"
     inkscape:cy="-139.31266"
     inkscape:window-x="-8"
     inkscape:window-y="-8"
     inkscape:window-maximized="1"
     inkscape:current-layer="svg8" />
  <defs
     id="defs2">
    <linearGradient
       id="linearGradient4766">
      <stop
         id="stop4762"
         offset="0"
         style="stop-color:#d2d4d1;stop-opacity:1;" />
      <stop
         id="stop4764"
         offset="1"
         style="stop-color:#729ed1;stop-opacity:1" />
    </linearGradient>
    <linearGradient
       gradientUnits="userSpaceOnUse"
       y2="143.64684"
       x2="66.263092"
       y1="143.64684"
       x1="5.0940237"
       id="linearGradient4772"
       xlink:href="#linearGradient4766"
       gradientTransform="translate(-5.0940235,-105.66442)" />
  </defs>
  <metadata
     id="metadata5">
    <rdf:RDF>
      <cc:Work
         rdf:about="">
        <dc:format>image/svg+xml</dc:format>
        <dc:type
           rdf:resource="http://purl.org/dc/dcmitype/StillImage" />
        <dc:title></dc:title>
      </cc:Work>
    </rdf:RDF>
  </metadata>
  <g
     id="g4574"
     transform="translate(0,-1.2884702)">
    <path
       inkscape:connector-curvature="0"
       id="path933-8"
       d="M 30.584383,1.5555786 0.2291562,19.768999 v 36.42681 l 6.0710443,3.64285 v -7.28567 -23.91898 -5.22256 L 30.584383,8.8408686 54.868885,23.411449 v 29.14154 l -24.284503,14.57096 -12.142091,-7.28529 v -7.28567 -7.28529 -10.92813 -3.64245 l 12.142091,-7.28567 12.142401,7.28567 v 14.57058 l -12.142401,7.28529 v -7.28529 h 2.7e-4 v -7.28529 l 6.071087,-3.64284 -6.071357,-3.64245 -6.071054,3.64245 v 7.28529 14.57095 l 6.071054,3.64247 18.213448,-10.92775 V 27.054279 L 30.584383,16.126159 12.371244,27.054279 v 3.64284 18.21341 7.28528 3.64285 3.64246 l 18.213138,10.92811 30.35553,-18.21342 v -36.42681 z"
       style="opacity:1;fill:url(#linearGradient4772);fill-opacity:1;stroke:#615d9c;stroke-width:0.4583123;stroke-miterlimit:4;stroke-dasharray:none;stroke-opacity:0.33701657" />
    <g
       transform="matrix(2.0636042,0,0,2.0636042,-74.301706,-40.39824)"
       id="g4561">
      <path
         id="path4739"
         style="font-style:normal;font-variant:normal;font-weight:bold;font-stretch:normal;font-size:192px;line-height:1.25;font-family:Vijaya;-inkscape-font-specification:'Vijaya, Bold';font-variant-ligatures:normal;font-variant-caps:normal;font-variant-numeric:normal;font-feature-settings:normal;text-align:start;letter-spacing:0px;word-spacing:0px;writing-mode:lr-tb;text-anchor:start;fill:#8093a2;fill-opacity:1;stroke:none;stroke-width:0.1807047"
         d="m 73.47218,38.62669 -1.507755,5.16703 c -0.203293,0.72281 -0.304939,1.23669 -0.304939,1.54163 0,0.41788 0.135528,0.73412 0.406585,0.9487 0.32781,0.24902 0.428845,0.64854 0.145377,0.84706 0,0 -3.952402,0.0165 -4.718687,0.008 -0.995412,0.0182 -0.405449,-1.03805 -0.221011,-1.43132 0.152271,-0.2793 0.389644,-0.84141 0.694584,-1.91434 l 3.422095,-11.74016 c 0.237175,-0.79059 0.268762,-1.36141 0.355762,-1.67717 l 0.192702,-0.6994 c 0.628578,-1.34214 3.873013,-1.06404 5.194557,-1.04553 2.01034,0 3.455977,0.25412 4.336913,0.76235 1.366579,0.80188 2.049869,2.00469 2.049869,3.60845 0,1.54728 -0.68329,2.90821 -2.049869,4.08279 -1.355285,1.17458 -3.179273,1.76187 -5.471964,1.76187 -0.700231,0 -1.541637,-0.0734 -2.524219,-0.22023 z m 0.271057,-1.05035 c 0.58729,0.0791 1.078581,0.11859 1.473873,0.11859 1.253639,0 2.23622,-0.57035 2.947745,-1.71105 0.722819,-1.15199 1.084228,-2.34916 1.084228,-3.5915 0,-0.84706 -0.231528,-1.50211 -0.694583,-1.96517 -0.463056,-0.47435 -1.106817,-0.71152 -1.931282,-0.71152 -0.169411,0 -0.37835,0.0113 -0.626819,0.0339 z"
         inkscape:connector-curvature="0" />
      <path
         id="path4741"
         style="font-style:normal;font-variant:normal;font-weight:bold;font-stretch:normal;font-size:192px;line-height:1.25;font-family:Vijaya;-inkscape-font-specification:'Vijaya, Bold';font-variant-ligatures:normal;font-variant-caps:normal;font-variant-numeric:normal;font-feature-settings:normal;text-align:start;letter-spacing:0px;word-spacing:0px;writing-mode:lr-tb;text-anchor:start;fill:#8093a2;fill-opacity:1;stroke:none;stroke-width:0.1807047"
         d="m 86.99115,42.0149 c -0.09035,0.58729 -0.135528,1.07294 -0.135528,1.45694 0,0.68893 0.197647,0.77367 0.592938,1.18026 0.395291,0.40658 0.926112,0.60988 1.59246,0.60988 0.643761,0 1.281874,-0.15247 1.91434,-0.45741 3.503802,-1.882 1.676822,0.74954 -0.423527,1.91995 -0.982582,0.53082 -2.072457,0.79623 -3.269626,0.79623 -1.524696,0 -2.580689,-0.36141 -3.167979,-1.08423 -0.575996,-0.73411 -0.863994,-1.58116 -0.863994,-2.54116 0,-1.49081 0.43482,-2.98163 1.304462,-4.47244 0.869641,-1.49081 2.049869,-2.68233 3.540682,-3.57456 1.502108,-0.90353 3.004216,-1.35529 4.506324,-1.35529 0.767995,0 1.343991,0.18071 1.727989,0.54211 0.395291,0.36141 0.592937,0.81882 0.592937,1.37223 0,0.66635 -0.191999,1.31576 -0.575996,1.94822 -0.519526,0.84706 -1.180228,1.53599 -1.982105,2.06681 -0.801877,0.51953 -1.699754,0.91482 -2.693629,1.18588 -0.655055,0.1807 -1.541637,0.31623 -2.659748,0.40658 z m 0.399708,-0.97611 c 1.233044,-0.0145 2.092761,-0.36185 2.869918,-1.19234 0.429174,-0.45176 0.79623,-1.02211 1.101169,-1.71105 0.304939,-0.68894 0.457409,-1.3327 0.457409,-1.93128 0,-0.24847 -0.07341,-0.44612 -0.220234,-0.59294 -0.135528,-0.14682 -0.310586,-0.22023 -0.525173,-0.22023 -0.440468,0 -0.931759,0.30494 -1.473873,0.91481 -0.993875,1.10682 -1.542867,2.50811 -2.209216,4.73303 z"
         inkscape:connector-curvature="0" />
      <path
         id="path4745"
         style="font-style:normal;font-variant:normal;font-weight:bold;font-stretch:normal;font-size:192px;line-height:1.25;font-family:Vijaya;-inkscape-font-specification:'Vijaya, Bold';font-variant-ligatures:normal;font-variant-caps:normal;font-variant-numeric:normal;font-feature-settings:normal;text-align:start;letter-spacing:0px;word-spacing:0px;writing-mode:lr-tb;text-anchor:start;fill:#8093a2;fill-opacity:1;stroke:none;stroke-width:0.1807047"
         d="m 111.97923,42.15043 c 1.6941,-3.73833 2.96468,-6.03666 3.81174,-6.89501 0.50823,-0.50823 1.03905,-0.76235 1.59246,-0.76235 0.3727,0 0.67764,0.14118 0.91481,0.42353 0.23718,0.27105 0.35577,0.6607 0.35577,1.16893 0,0.88094 -0.21459,1.6207 -0.64376,2.21928 -0.27106,0.384 -0.57035,0.576 -0.89788,0.576 -0.3727,0 -0.64941,-0.16941 -0.83011,-0.50824 -0.18071,-0.33882 -0.31059,-0.53646 -0.38965,-0.59293 -0.0678,-0.0565 -0.14117,-0.0847 -0.22023,-0.0847 -0.0904,0 -0.18635,0.0282 -0.288,0.0847 -0.20329,0.10164 -0.4687,0.36705 -0.79623,0.79623 -0.31623,0.41788 -0.71152,1.12375 -1.18587,2.11763 -0.46306,0.99388 -0.83012,1.83528 -1.10117,2.52422 -0.25977,0.67764 -0.58319,3.35976 -1.10117,3.91339 -0.75233,0.8041 -2.66153,0.89466 -3.30351,0 -0.85522,-1.19184 2.25316,-9.04653 2.25316,-9.04653 0.15812,-0.66635 0.23718,-1.11247 0.23718,-1.33835 0,-0.23717 -0.0452,-0.42352 -0.13553,-0.55905 -0.0791,-0.13553 -0.12999,-0.15036 -0.34296,-0.28427 -1.41686,-0.48915 2.61085,-1.26878 3.30764,-1.40984 1.96559,-0.51425 -0.87423,6.30337 -1.23669,7.65736 z"
         inkscape:connector-curvature="0" />
      <path
         id="path4747"
         style="font-style:normal;font-variant:normal;font-weight:bold;font-stretch:normal;font-size:192px;line-height:1.25;font-family:Vijaya;-inkscape-font-specification:'Vijaya, Bold';font-variant-ligatures:normal;font-variant-caps:normal;font-variant-numeric:normal;font-feature-settings:normal;text-align:start;letter-spacing:0px;word-spacing:0px;writing-mode:lr-tb;text-anchor:start;fill:#8093a2;fill-opacity:1;stroke:none;stroke-width:0.1807047"
         d="m 139.08493,32.12132 c -0.384,-0.84705 -0.89223,-1.50211 -1.52469,-1.96516 -0.63247,-0.46306 -1.31576,-0.69459 -2.04987,-0.69459 -0.71153,0 -1.3327,0.27106 -1.86352,0.81318 -0.53082,0.54211 -0.79623,1.15199 -0.79623,1.82963 0,0.66635 0.1807,1.32705 0.54211,1.9821 0.37271,0.65506 1.24799,1.63199 2.62587,2.93081 1.09552,1.05035 1.82963,1.95387 2.20234,2.71057 0.38399,0.7567 0.57599,1.57552 0.57599,2.45645 0,0.99388 -0.26541,1.9087 -0.79623,2.74446 -0.51952,0.83576 -1.28187,1.48516 -2.28704,1.94822 -1.00517,0.45176 -2.14587,0.67764 -3.4221,0.67764 -0.77929,0 -1.76187,-0.11859 -2.94774,-0.35576 -1.3293,-0.29463 -2.13515,-0.11762 -3.20186,-0.18635 -2.71618,-0.0291 0.96928,-4.46651 1.47387,-3.35433 0.384,0.86964 0.92611,1.54728 1.62634,2.03292 0.71153,0.48565 1.5247,0.72847 2.43952,0.72847 0.90352,0 1.65457,-0.29364 2.25316,-0.88093 0.60988,-0.59859 0.91481,-1.29882 0.91481,-2.1007 0,-0.68893 -0.17505,-1.34399 -0.52517,-1.96516 -0.33882,-0.63247 -1.11811,-1.54728 -2.33787,-2.74445 -1.20846,-1.19717 -2.04422,-2.27011 -2.50727,-3.21881 -0.32753,-0.70023 -0.49129,-1.44563 -0.49129,-2.23622 0,-1.36658 0.53646,-2.55245 1.6094,-3.55762 1.08423,-1.00517 2.50163,-1.50775 4.2522,-1.50775 0.79059,0 1.82964,0.1807 3.11716,0.54211 0.7567,0.20329 1.28752,0.30494 1.59246,0.30494 0.27106,0 0.46731,-0.14417 0.71153,-0.16941 1.08227,0.053 1.02972,8.4689 -1.18588,3.23574 z"
         inkscape:connector-curvature="0" />
      <path
         id="path4749"
         style="font-style:normal;font-variant:normal;font-weight:bold;font-stretch:normal;font-size:192px;line-height:1.25;font-family:Vijaya;-inkscape-font-specification:'Vijaya, Bold';font-variant-ligatures:normal;font-variant-caps:normal;font-variant-numeric:normal;font-feature-settings:normal;text-align:start;letter-spacing:0px;word-spacing:0px;writing-mode:lr-tb;text-anchor:start;fill:#8093a2;fill-opacity:1;stroke:none;stroke-width:0.1807047"
         d="m 146.45429,40.50715 c 1.23106,-1.80705 2.12328,-3.03245 2.67669,-3.67621 0.83576,-0.91482 1.54729,-1.53035 2.13458,-1.84658 0.59858,-0.32753 1.16893,-0.49129 1.71104,-0.49129 0.46306,0 0.85835,0.17506 1.18588,0.52517 0.33882,0.35012 0.50823,0.81317 0.50823,1.38917 0,0.49694 -0.10729,1.11246 -0.32188,1.84658 l -1.72799,5.81078 c -0.15811,0.50823 -0.23717,0.84706 -0.23717,1.01647 0,0.079 0.0282,0.15811 0.0847,0.23717 0.0678,0.0678 0.14118,0.10165 0.22024,0.10165 0.11294,0 0.22588,-0.0452 0.33882,-0.13553 0.28235,-0.23718 0.57075,-0.90189 0.91482,-1.10117 1.58686,-0.1649 -0.5055,1.83043 -1.28753,2.38869 -0.70023,0.48564 -1.36657,0.72847 -1.99904,0.72847 -0.5647,0 -1.00517,-0.14683 -1.3214,-0.44047 -0.31624,-0.29365 -0.47435,-0.6607 -0.47435,-1.10117 0,-0.39529 0.10729,-0.95999 0.32188,-1.69411 l 1.6941,-5.81078 c 0.11294,-0.39529 0.16941,-0.68894 0.16941,-0.88094 0,-0.0904 -0.0395,-0.17506 -0.11858,-0.25411 -0.0791,-0.0791 -0.16941,-0.11859 -0.27106,-0.11859 -0.32753,0 -0.77364,0.27106 -1.33835,0.81317 -1.18587,1.11811 -2.37174,2.87433 -3.55762,5.26867 0,0 -0.8604,3.78107 -1.20281,4.04892 -0.41315,0.32316 -3.04814,0.54889 -3.38822,0 -0.28892,-0.46634 4.47244,-15.41637 4.47244,-15.41637 0.18071,-0.65506 0.27106,-1.12376 0.27106,-1.40611 -2.10744,-1.53253 0.60236,-1.93052 3.26963,-2.10069 2.94478,-0.40431 -1.99237,9.75769 -2.72752,12.29921 z"
         inkscape:connector-curvature="0" />
      <path
         id="path4751"
         style="font-style:normal;font-variant:normal;font-weight:bold;font-stretch:normal;font-size:192px;line-height:1.25;font-family:Vijaya;-inkscape-font-specification:'Vijaya, Bold';font-variant-ligatures:normal;font-variant-caps:normal;font-variant-numeric:normal;font-feature-settings:normal;text-align:start;letter-spacing:0px;word-spacing:0px;writing-mode:lr-tb;text-anchor:start;fill:#8093a2;fill-opacity:1;stroke:none;stroke-width:0.1807047"
         d="m 169.73132,34.67942 c 0.46319,1.059 -2.64281,9.06347 -2.64281,9.06347 l -0.288,1.11811 c -0.0226,0.13553 -0.0339,0.23153 -0.0339,0.288 0,0.11294 0.0395,0.20894 0.11859,0.288 0.0791,0.0791 0.15812,0.11859 0.23717,0.11859 0.192,0 0.45741,-0.14118 0.79623,-0.42353 1.85888,-1.88087 1.03039,0.51976 -0.60987,1.57552 -0.73412,0.54211 -1.5247,0.81317 -2.37175,0.81317 -0.51953,0 -0.91482,-0.13553 -1.18588,-0.40659 -0.27105,-0.27105 -0.40658,-0.60987 -0.40658,-1.01646 0,-0.36141 0.14682,-1.02211 0.44046,-1.9821 l 0.32189,-1.10117 c -1.05035,1.80704 -2.06117,3.08892 -3.03246,3.84562 -0.5647,0.44047 -1.16893,0.6607 -1.81269,0.6607 -0.83576,0 -1.43999,-0.34447 -1.81269,-1.03341 -0.37271,-0.68893 -0.55906,-1.46257 -0.55906,-2.32092 0,-1.28752 0.38965,-2.76139 1.16893,-4.42162 0.79059,-1.66022 1.81835,-2.99292 3.08328,-3.99809 1.05034,-0.83576 2.03293,-1.25364 2.94774,-1.25364 0.50824,0 0.91482,0.14682 1.21976,0.44047 0.31623,0.29364 0.54776,0.83011 0.69458,1.6094 0,0 0.0968,-1.39259 0.4913,-1.67717 0.35432,-0.25561 2.8028,-1.17618 3.23574,-0.18635 z m -4.3708,2.59199 c 0,-0.73412 -0.11294,-1.26494 -0.33882,-1.59247 -0.16941,-0.22588 -0.38964,-0.33882 -0.6607,-0.33882 -0.28235,0 -0.576,0.13553 -0.88093,0.40659 -0.60988,0.5647 -1.27058,1.71105 -1.98211,3.43904 -0.70023,1.71669 -1.05035,3.20186 -1.05035,4.4555 0,0.48564 0.0791,0.83576 0.23718,1.05034 0.15812,0.20329 0.33317,0.30494 0.52517,0.30494 0.41788,0 0.83576,-0.23153 1.25364,-0.69458 0.59859,-0.67765 1.13505,-1.50211 1.6094,-2.4734 0.85835,-1.7054 1.28752,-3.22445 1.28752,-4.55714 z"
         inkscape:connector-curvature="0" />
      <path
         d="m 99.162016,42.0149 c -0.0904,0.58729 -0.13553,1.07294 -0.13553,1.45694 0,0.68893 0.19765,0.77367 0.59294,1.18026 0.395294,0.40658 0.926124,0.60988 1.592474,0.60988 0.64376,0 1.28188,-0.15247 1.91435,-0.45741 3.50382,-1.882 1.67683,0.74954 -0.42353,1.91995 -0.98259,0.53082 -2.07247,0.79623 -3.269644,0.79623 -1.52471,0 -2.580709,-0.36141 -3.168,-1.08423 -0.576,-0.73411 -0.864,-1.58116 -0.864,-2.54116 0,-1.49081 0.43482,-2.98163 1.30447,-4.47244 0.86965,-1.49081 2.04988,-2.68233 3.540704,-3.57456 1.50212,-0.90353 3.00423,-1.35529 4.50635,-1.35529 0.768,0 1.344,0.18071 1.728,0.54211 0.39529,0.36141 0.59294,0.81882 0.59294,1.37223 0,0.66635 -0.192,1.31576 -0.576,1.94822 -0.51953,0.84706 -1.18023,1.53599 -1.98211,2.06681 -0.80189,0.51953 -1.69977,0.91482 -2.69365,1.18588 -0.65506,0.1807 -1.54164,0.31623 -2.659764,0.40658 z m 0.39971,-0.97611 c 1.233054,-0.0145 2.092774,-0.36185 2.869934,-1.19234 0.42918,-0.45176 0.79624,-1.02211 1.10118,-1.71105 0.30494,-0.68894 0.45741,-1.3327 0.45741,-1.93128 0,-0.24847 -0.0734,-0.44612 -0.22024,-0.59294 -0.13553,-0.14682 -0.31058,-0.22023 -0.52517,-0.22023 -0.44047,0 -0.93177,0.30494 -1.47389,0.91481 -0.99387,1.10682 -1.54287,2.50811 -2.209224,4.73303 z"
         style="font-style:normal;font-variant:normal;font-weight:bold;font-stretch:normal;font-size:192px;line-height:1.25;font-family:Vijaya;-inkscape-font-specification:'Vijaya, Bold';font-variant-ligatures:normal;font-variant-caps:normal;font-variant-numeric:normal;font-feature-settings:normal;text-align:start;letter-spacing:0px;word-spacing:0px;writing-mode:lr-tb;text-anchor:start;fill:#8093a2;fill-opacity:1;stroke:none;stroke-width:0.1807047"
         id="path853"
         inkscape:connector-curvature="0" />
      <path
         d="m 174.95046,42.05688 c 1.6941,-3.73833 2.96468,-6.03666 3.81174,-6.89501 0.50823,-0.50823 1.03905,-0.76235 1.59246,-0.76235 0.3727,0 0.67764,0.14118 0.91481,0.42353 0.23718,0.27105 0.35577,0.6607 0.35577,1.16893 0,0.88094 -0.21459,1.6207 -0.64376,2.21928 -0.27106,0.384 -0.57035,0.576 -0.89788,0.576 -0.3727,0 -0.64941,-0.16941 -0.83011,-0.50824 -0.18071,-0.33882 -0.31059,-0.53646 -0.38965,-0.59293 -0.0678,-0.0565 -0.14117,-0.0847 -0.22023,-0.0847 -0.0904,0 -0.18635,0.0282 -0.288,0.0847 -0.20329,0.10164 -0.4687,0.36705 -0.79623,0.79623 -0.31623,0.41788 -0.71152,1.12375 -1.18587,2.11763 -0.46306,0.99388 -0.83012,1.83528 -1.10117,2.52422 -0.25977,0.67764 -0.58319,3.35976 -1.10117,3.91339 -0.75233,0.8041 -2.66153,0.89466 -3.30351,0 -0.85522,-1.19184 2.25316,-9.04653 2.25316,-9.04653 0.15812,-0.66635 0.23718,-1.11247 0.23718,-1.33835 0,-0.23717 -0.0452,-0.42352 -0.13553,-0.55905 -0.0791,-0.13553 -0.12999,-0.15036 -0.34296,-0.28427 -1.41686,-0.48915 2.61085,-1.26878 3.30764,-1.40984 1.96559,-0.51425 -0.87423,6.30337 -1.23669,7.65736 z"
         style="font-style:normal;font-variant:normal;font-weight:bold;font-stretch:normal;font-size:192px;line-height:1.25;font-family:Vijaya;-inkscape-font-specification:'Vijaya, Bold';font-variant-ligatures:normal;font-variant-caps:normal;font-variant-numeric:normal;font-feature-settings:normal;text-align:start;letter-spacing:0px;word-spacing:0px;writing-mode:lr-tb;text-anchor:start;fill:#8093a2;fill-opacity:1;stroke:none;stroke-width:0.1807047"
         id="path855"
         inkscape:connector-curvature="0" />
      <path
         id="path857"
         style="font-style:normal;font-variant:normal;font-weight:bold;font-stretch:normal;font-size:192px;line-height:1.25;font-family:Vijaya;-inkscape-font-specification:'Vijaya, Bold';font-variant-ligatures:normal;font-variant-caps:normal;font-variant-numeric:normal;font-feature-settings:normal;text-align:start;letter-spacing:0px;word-spacing:0px;writing-mode:lr-tb;text-anchor:start;fill:#8093a2;fill-opacity:1;stroke:none;stroke-width:0.1807047"
         d="m 184.88756,42.0149 c -0.0904,0.58729 -0.13553,1.07294 -0.13553,1.45694 0,0.68893 0.19765,0.77367 0.59294,1.18026 0.39529,0.40658 0.92612,0.60988 1.59247,0.60988 0.64376,0 1.28188,-0.15247 1.91435,-0.45741 3.50382,-1.882 1.67683,0.74954 -0.42353,1.91995 -0.98259,0.53082 -2.07247,0.79623 -3.26964,0.79623 -1.52471,0 -2.58071,-0.36141 -3.168,-1.08423 -0.576,-0.73411 -0.864,-1.58116 -0.864,-2.54116 0,-1.49081 0.43482,-2.98163 1.30447,-4.47244 0.86965,-1.49081 2.04988,-2.68233 3.5407,-3.57456 1.50212,-0.90353 3.00423,-1.35529 4.50635,-1.35529 0.768,0 1.344,0.18071 1.728,0.54211 0.39529,0.36141 0.59294,0.81882 0.59294,1.37223 0,0.66635 -0.192,1.31576 -0.576,1.94822 -0.51953,0.84706 -1.18023,1.53599 -1.98211,2.06681 -0.80189,0.51953 -1.69977,0.91482 -2.69365,1.18588 -0.65506,0.1807 -1.54164,0.31623 -2.65976,0.40658 z m 0.39971,-0.97611 c 1.23305,-0.0145 2.09277,-0.36185 2.86993,-1.19234 0.42918,-0.45176 0.79624,-1.02211 1.10118,-1.71105 0.30494,-0.68894 0.45741,-1.3327 0.45741,-1.93128 0,-0.24847 -0.0734,-0.44612 -0.22024,-0.59294 -0.13553,-0.14682 -0.31058,-0.22023 -0.52517,-0.22023 -0.44047,0 -0.93177,0.30494 -1.47389,0.91481 -0.99387,1.10682 -1.54287,2.50811 -2.20922,4.73303 z"
         inkscape:connector-curvature="0" />
    </g>
  </g>
</svg>
